<?xml version="1.0" encoding="utf-8"?>
<!-- Generator: Adobe Illustrator 16.0.0, SVG Export Plug-In . SVG Version: 6.00 Build 0)  -->
<!DOCTYPE svg PUBLIC "-//W3C//DTD SVG 1.1//EN" "http://www.w3.org/Graphics/SVG/1.1/DTD/svg11.dtd">
<svg version="1.1" id="Layer_1" xmlns="http://www.w3.org/2000/svg" xmlns:xlink="http://www.w3.org/1999/xlink" x="0px" y="0px"
	 width="600px" height="98.198px" viewBox="0 0 600 98.198" enable-background="new 0 0 600 98.198" xml:space="preserve">
<rect x="2.899" y="33.215" fill="#F26952" width="46.468" height="33.075"/>
<rect x="52.633" y="33.215" fill="#F26952" width="46.468" height="33.075"/>
<rect x="102.366" y="33.215" fill="#F26952" width="46.469" height="33.075"/>
<rect x="500.234" y="15.02" fill="#A1D182" width="46.469" height="69.466"/>
<rect x="549.969" y="33.215" fill="#F26952" width="46.467" height="33.075"/>
<rect x="152.1" y="15.02" fill="#A1D182" width="46.469" height="69.466"/>
<rect x="201.833" y="15.02" fill="#A1D182" width="46.468" height="69.466"/>
<rect x="251.566" y="15.02" fill="#A1D182" width="46.469" height="69.466"/>
<rect x="301.301" y="15.02" fill="#A1D182" width="46.467" height="69.466"/>
<rect x="351.033" y="15.02" fill="#A1D182" width="46.469" height="69.466"/>
<rect x="400.768" y="15.02" fill="#A1D182" width="46.469" height="69.466"/>
<rect x="450.5" y="15.02" fill="#A1D182" width="46.469" height="69.466"/>
<text transform="matrix(1 0 0 1 15.4932 53.6099)" font-family="'MyriadPro-Regular'" font-size="12">JAN</text>
<text transform="matrix(1 0 0 1 66.9048 52.6411)" font-family="'MyriadPro-Regular'" font-size="12">FEB</text>
<text transform="matrix(1 0 0 1 113.7896 53.6099)" font-family="'MyriadPro-Regular'" font-size="12">MAR</text>
<text transform="matrix(1 0 0 1 165.2427 53.2749)" font-family="'MyriadPro-Regular'" font-size="12">APR</text>
<text transform="matrix(1 0 0 1 264.7515 53.2749)" font-family="'MyriadPro-Regular'" font-size="12">JUN</text>
<text transform="matrix(1 0 0 1 315.6016 53.2749)" font-family="'MyriadPro-Regular'" font-size="12">JUL</text>
<text transform="matrix(1 0 0 1 362.8389 52.6411)" font-family="'MyriadPro-Regular'" font-size="12">AUG</text>
<text transform="matrix(1 0 0 1 411.918 53.2749)" font-family="'MyriadPro-Regular'" font-size="12">SEPT</text>
<text transform="matrix(1 0 0 1 463.1396 52.6411)" font-family="'MyriadPro-Regular'" font-size="12">OCT</text>
<text transform="matrix(1 0 0 1 512.0391 53.2749)" font-family="'MyriadPro-Regular'" font-size="12">NOV</text>
<text transform="matrix(1 0 0 1 562.7754 53.2749)" font-family="'MyriadPro-Regular'" font-size="12">DEC</text>
<text transform="matrix(1 0 0 1 213.3257 53.2749)" font-family="'MyriadPro-Regular'" font-size="12">MAY</text>
<text transform="matrix(1 0 0 1 213.3257 53.2749)" font-family="'MyriadPro-Regular'" font-size="12">MAY</text>
<rect x="-8.117" y="-283.135" fill="none" stroke="#3C2415" stroke-miterlimit="10" width="5036" height="3805.277"/>
</svg>
